<svg xmlns="http://www.w3.org/2000/svg" xmlns:xlink="http://www.w3.org/1999/xlink" width="395.963" height="272.885" viewBox="0 0 395.963 272.885">
  <defs>
    <radialGradient id="radial-gradient" cx="0.5" cy="0.501" r="0.56" gradientTransform="matrix(0.798, 0, 0, -1.035, -1.659, 19.711)" gradientUnits="objectBoundingBox">
      <stop offset="0" stop-color="#ff6900"/>
      <stop offset="0.042" stop-color="#fe6600"/>
      <stop offset="1" stop-color="#fc3a14"/>
    </radialGradient>
  </defs>
  <g id="그룹_161" data-name="그룹 161" transform="translate(49.63 -19.695)">
    <g id="그룹_154" data-name="그룹 154">
      <path id="패스_523" data-name="패스 523" d="M92.923,43.316S110.762,61.949,123.79,54.25c14.613-8.637,22.293-34.555,22.293-34.555s-2.559,35.032,22.368,37.536c19.622,1.972,39.994-34.716,39.994-34.716s-21.569,38.634-1.487,62.052c20.68,24.113,62.022,37.372,139.375,46.538,0,0-113.637,20.6-62.861,71.725,0,0-59.815-36.116-96.959-17.431s-55.3,45.013-79.491,106.007c0,0,27.01-73.921,6.566-103.185s-70.532,8.648-87.911,24.514c0,0,46.677-42.494,45.654-74.578s-49.74-38.739-49.74-38.739,38.995,9.121,68.824-10.972C114.494,72.225,92.923,43.316,92.923,43.316Z" fill="#231f22"/>
      <path id="패스_524" data-name="패스 524" d="M92.923,43.316S105.39,62.74,120.525,55.3c16.942-8.322,25.558-35.609,25.558-35.609s-7.839,34.527,17.038,37.536,45.324-34.716,45.324-34.716S182.432,61.5,201.628,84.567C221.963,109,263.648,121.939,341,131.1c0,0-111.772,18.686-61,69.808,0,0-61.68-34.2-98.822-15.514s-50.433,46.187-74.629,107.181c0,0,22.149-75.095,1.7-104.359s-65.77,9.167-83.149,25.033c0,0,41.864-43.011,40.893-75.1C65.064,107.181-.79,95.5-.79,95.5s57.262,11.153,85.874-7.051C113.326,70.476,92.923,43.316,92.923,43.316Z" fill="url(#radial-gradient)"/>
      <path id="패스_525" data-name="패스 525" d="M105.712,59.673s10.493,16.836,22.463,11.141,15.054-28.5,15.054-28.5S141.061,67.621,158.1,72.169c13.05,3.483,35.234-23.73,35.234-23.73s-22.547,25.842-8.182,42.933,60.96,32.6,115.3,39.037c0,0-82.316,16.436-46.648,52.349,0,0-56.922-33.68-83.016-20.551s-32.775,41.289-49.771,84.136c0,0,12.9-61.6-1.459-82.156s-55.195,12.277-67.4,23.422c0,0,38.439-36.053,37.719-58.59S38.33,102.574,38.33,102.574,81.9,107.51,103.277,94.1C121.508,82.656,105.712,59.673,105.712,59.673Z" fill="#ff771f"/>
      <path id="패스_526" data-name="패스 526" d="M110.839,67.781s12.213,13.877,22.643,8.915,8.9-25.9,8.9-25.9,2.325,23.114,17.17,27.077c11.369,3.035,26.939-20.709,26.939-20.709s-15.884,22.548-3.37,37.439,55.4,30.711,102.743,36.32c0,0-74,12.012-42.927,43.3,0,0-49.6-29.346-72.33-17.907s-30.985,37.476-45.791,74.809c0,0,13.671-55.17,1.155-73.083s-48.089,10.7-58.726,20.408c0,0,33.49-31.412,32.864-51.048S55.2,104.367,55.2,104.367s37.959,4.3,56.586-7.386C127.672,87.014,110.839,67.781,110.839,67.781Z" fill="#f6e6d4"/>
      <path id="패스_527" data-name="패스 527" d="M197.2,111.568,315.67,50.919l2.7,2.6Z" fill="#ff6800"/>
      <path id="패스_528" data-name="패스 528" d="M203.622,101.726l50.839-50.752,3.875,1.791Z" fill="#ff6800"/>
      <path id="패스_529" data-name="패스 529" d="M199.755,79.9V47.474h4.688Z" fill="#ff6800"/>
      <path id="패스_530" data-name="패스 530" d="M203.454,86.415,228.877,51.17l4.208,1.4Z" fill="#ff6800"/>
      <path id="패스_531" data-name="패스 531" d="M36.523,34.26l4.2-1.419L81.792,88.9Z" fill="#ff6800"/>
      <path id="패스_532" data-name="패스 532" d="M36.324,68.731l3.534-2.092,66.979,52.246Z" fill="#ff6800"/>
      <path id="패스_533" data-name="패스 533" d="M63.539,108.441-15.981,48.5l3.477-2.132Z" fill="#ff6800"/>
      <path id="패스_534" data-name="패스 534" d="M84.168,125.471l-91.536-34.6,2.276-2.782Z" fill="#ff6800"/>
      <path id="패스_535" data-name="패스 535" d="M40.736,116.138-43.951,98.692l1.358-3.046Z" fill="#ff6800"/>
      <path id="패스_536" data-name="패스 536" d="M-3.112,188.673l-1.846-2.928,89-22.449Z" fill="#ff6800"/>
      <path id="패스_537" data-name="패스 537" d="M-2.327,241.871l-3.417-2.178L120.84,148.056Z" fill="#ff6800"/>
      <path id="패스_538" data-name="패스 538" d="M40.8,188.553l-2.509-2.687,43.576-18.8Z" fill="#ff6800"/>
      <path id="패스_539" data-name="패스 539" d="M176.082,240.781h-4.688V177.812Z" fill="#ff6800"/>
      <path id="패스_540" data-name="패스 540" d="M216.038,283.565,183.961,215.9,220.5,282.589Z" fill="#ff6800"/>
      <path id="패스_541" data-name="패스 541" d="M215.832,249.83l-31.82-54.277,36.176,53.1Z" fill="#ff6800"/>
      <path id="패스_542" data-name="패스 542" d="M231.827,154.861,331.992,125.1l1.693,2.97Z" fill="#ff6800"/>
      <path id="패스_543" data-name="패스 543" d="M256.685,154.957l50.271-7.392.57,3.159Z" fill="#ff6800"/>
      <path id="패스_544" data-name="패스 544" d="M191.521,108.226,310,47.577l2.7,2.6Z" fill="#f7331b"/>
      <path id="패스_545" data-name="패스 545" d="M197.945,98.384l50.841-50.751,3.876,1.791Z" fill="#f7331b"/>
      <path id="패스_546" data-name="패스 546" d="M194.08,76.558V44.132h4.688Z" fill="#f7331b"/>
      <path id="패스_547" data-name="패스 547" d="M197.779,83.073,223.2,47.828l4.207,1.4Z" fill="#f7331b"/>
      <path id="패스_548" data-name="패스 548" d="M30.845,30.92,35.04,29.5,76.116,85.558Z" fill="#f7331b"/>
      <path id="패스_549" data-name="패스 549" d="M30.647,65.389,34.181,63.3l66.982,52.246Z" fill="#f7331b"/>
      <path id="패스_550" data-name="패스 550" d="M57.861,105.1-21.66,45.156l3.482-2.132Z" fill="#f7331b"/>
      <path id="패스_551" data-name="패스 551" d="M78.492,122.13l-91.538-34.6,2.28-2.782Z" fill="#f7331b"/>
      <path id="패스_552" data-name="패스 552" d="M35.058,112.8-49.63,95.35l1.361-3.044Z" fill="#f7331b"/>
      <path id="패스_553" data-name="패스 553" d="M-8.789,185.332l-1.847-2.926,89-22.451Z" fill="#f7331b"/>
      <path id="패스_554" data-name="패스 554" d="M-8,238.529l-3.418-2.178,126.584-91.637Z" fill="#f7331b"/>
      <path id="패스_555" data-name="패스 555" d="M35.123,185.212l-2.511-2.687,43.576-18.8Z" fill="#f7331b"/>
      <path id="패스_556" data-name="패스 556" d="M170.4,237.439h-4.687V174.47Z" fill="#f7331b"/>
      <path id="패스_557" data-name="패스 557" d="M210.362,280.223l-32.08-67.669,36.541,66.692Z" fill="#f7331b"/>
      <path id="패스_558" data-name="패스 558" d="M210.153,246.489l-31.816-54.278,36.173,53.1Z" fill="#f7331b"/>
      <path id="패스_559" data-name="패스 559" d="M226.149,151.52l100.168-29.757,1.694,2.969Z" fill="#f7331b"/>
      <path id="패스_560" data-name="패스 560" d="M251.007,151.615l50.275-7.391.569,3.159Z" fill="#f7331b"/>
    </g>
    <g id="그룹_160" data-name="그룹 160">
      <g id="그룹_155" data-name="그룹 155">
        <path id="패스_561" data-name="패스 561" d="M23.639,215.107c-.946-14.029-2.806-32.952-5.527-56.24-.728-6.582-1.4-11.773-1.985-15.447l-.287-1.789,1.5-.936c1.764-1.1,5.106-3.481,9.935-7.088a114.5,114.5,0,0,1,10.671-7.084l.059-.034.061-.03c1.115-.551,2.206-1.055,3.241-1.5a29.557,29.557,0,0,1,3.977-1.4c3.754-1,6.862-.769,9.238.7a10.02,10.02,0,0,1,4.289,6.551c1.943,7.78.174,17.152-5.261,27.907,2.845-.332,6.557.211,8.774,4.385l.04.076a16.266,16.266,0,0,1,1.164,3.219c1.352,5.411.354,11.873-2.964,19.206a70.056,70.056,0,0,1-10.08,15.851,51.589,51.589,0,0,1-19.676,14.5c-1.214.521-2.469,1.02-3.73,1.488l-3.2,1.188ZM40.85,180.282q.117,1.767.328,3.983c4.156-3.934,5.4-6.372,5.717-7.726-.032.012-.064.025-.1.04A33.569,33.569,0,0,0,40.85,180.282Zm-1.561-27.909c.036,1.381.085,2.76.144,4.129a26.26,26.26,0,0,0,1.99-5.569A25.428,25.428,0,0,0,39.289,152.373Z"/>
        <path id="패스_562" data-name="패스 562" d="M23.381,212.922a1.259,1.259,0,0,1-1.028-.175,1.346,1.346,0,0,1-.581-1.025c-.948-14.05-2.81-33-5.534-56.308-.728-6.594-1.4-11.808-1.991-15.5a1.35,1.35,0,0,1,.608-1.362c1.794-1.117,5.166-3.523,10.025-7.151A113.367,113.367,0,0,1,35.412,124.4a.661.661,0,0,1,.059-.031c1.1-.541,2.165-1.036,3.179-1.47a28.567,28.567,0,0,1,3.806-1.346c3.409-.91,6.186-.726,8.255.551a8.749,8.749,0,0,1,3.7,5.728c2.015,8.063-.167,17.977-6.487,29.5.282-.092.559-.172.829-.246,5.436-1.453,8.054,1.023,9.294,3.356l.02.038a14.986,14.986,0,0,1,1.066,2.949c1.274,5.1.3,11.262-2.884,18.306a68.78,68.78,0,0,1-9.89,15.547,50.3,50.3,0,0,1-19.192,14.133c-1.195.511-2.429,1-3.671,1.464A1.125,1.125,0,0,1,23.381,212.922Zm12.981-36.584c.117,1.98.331,4.439.64,7.339,7.418-6.473,8.5-10.05,8.03-11.941a.441.441,0,0,0-.045-.123h0a1.959,1.959,0,0,0-.869.1,7.183,7.183,0,0,0-.964.343A37.188,37.188,0,0,0,36.362,176.338Zm-1.534-27.923c.051,2.078.126,4.164.225,6.211l.151,3.13a30.353,30.353,0,0,0,4.458-10.45,4.275,4.275,0,0,0,.137-1.689l0-.017a1.682,1.682,0,0,0-.4.066,4.417,4.417,0,0,0-.594.211A20.727,20.727,0,0,0,34.828,148.415Z" fill="#fff"/>
        <path id="패스_563" data-name="패스 563" d="M17.483,140.888q2.751-1.71,10.116-7.211a111.763,111.763,0,0,1,10.392-6.9q1.591-.785,3.116-1.44,11.843-5.073,14.014,4.019,3.2,12.812-8.314,31.923,9.071-4.63,12.071,1.014a13.436,13.436,0,0,1,.967,2.677q1.8,7.224-2.8,17.407a67.174,67.174,0,0,1-9.7,15.244,48.836,48.836,0,0,1-18.708,13.769q-1.794.768-3.612,1.441-1.432-21.241-5.54-56.375Q18.38,146.474,17.483,140.888ZM37,176.883q.2,3.969.953,10.574Q49.567,177.9,48.245,172.6q-.481-1.926-3.621-.582A40.563,40.563,0,0,0,37,176.883Zm-1.513-27.926q.075,3.486.242,6.933l.332,6.9a34.294,34.294,0,0,0,6.828-14.014,5.529,5.529,0,0,0,.123-2.291q-.408-1.636-2.742-.639A23.936,23.936,0,0,0,35.487,148.957Z" fill="#ffcd00"/>
        <path id="패스_564" data-name="패스 564" d="M42.779,122.849q8.563-2.291,10.378,5.306,3.2,12.81-8.315,31.923a21.907,21.907,0,0,1,4.23-1.694q5.609-1.5,7.842,2.706a13.518,13.518,0,0,1,.967,2.679q1.8,7.223-2.8,17.406a67.061,67.061,0,0,1-9.7,15.243,48.817,48.817,0,0,1-18.707,13.771q-1.794.768-3.613,1.441-1.431-21.245-5.539-56.376-1.1-9.977-2-15.563,2.749-1.711,10.116-7.212a111.38,111.38,0,0,1,10.392-6.9q1.59-.787,3.115-1.442a27.2,27.2,0,0,1,3.637-1.285M34.1,161.588a34.312,34.312,0,0,0,6.828-14.014,5.586,5.586,0,0,0,.124-2.291q-.339-1.349-1.979-.909a5.723,5.723,0,0,0-.764.27,23.849,23.849,0,0,0-4.783,3.115q.075,3.487.242,6.934l.332,6.9m1.891,24.671Q47.6,176.7,46.28,171.4q-.384-1.543-2.485-.984a8.335,8.335,0,0,0-1.136.4,40.494,40.494,0,0,0-7.623,4.864q.2,3.971.952,10.574m6.146-65.994.646,2.583-.646-2.583a29.694,29.694,0,0,0-3.978,1.4c-1.035.443-2.125.948-3.241,1.5-.041.019-.08.041-.119.062A114.515,114.515,0,0,0,24.149,130.3a.124.124,0,0,0-.023.017c-4.829,3.607-8.173,5.991-9.936,7.089a2.7,2.7,0,0,0-1.216,2.725c.59,3.673,1.257,8.865,1.982,15.427l0,.018c2.721,23.29,4.581,42.213,5.527,56.241a2.69,2.69,0,0,0,1.163,2.049,2.51,2.51,0,0,0,2.055.349,2.342,2.342,0,0,0,.225-.071c1.261-.468,2.517-.968,3.729-1.488a51.619,51.619,0,0,0,19.679-14.5A70.147,70.147,0,0,0,57.416,182.3c3.317-7.33,4.314-13.792,2.962-19.2a16.278,16.278,0,0,0-1.165-3.22l-.039-.077a8.173,8.173,0,0,0-8.767-4.393,61.742,61.742,0,0,0,4.762-12.176,31.788,31.788,0,0,0,.488-15.735,10.019,10.019,0,0,0-4.286-6.539c-2.375-1.465-5.483-1.7-9.237-.7Zm-6,28.817a25.184,25.184,0,0,1,2.134-1.44,26.2,26.2,0,0,1-1.99,5.568c-.059-1.369-.107-2.748-.144-4.128ZM37.7,176.99a33.629,33.629,0,0,1,5.95-3.7c.033-.014.064-.028.1-.04-.313,1.355-1.561,3.792-5.716,7.727q-.21-2.214-.329-3.984Z"/>
      </g>
      <g id="그룹_156" data-name="그룹 156">
        <path id="패스_565" data-name="패스 565" d="M181.282,165.994a468.626,468.626,0,0,0,1.728-74.512l-.093-1.6,25.1-15.844,1.441,9.209.04-5.931,24.264-15.652.518,4.113a501.12,501.12,0,0,0,10.408,57.889l2.95,11.811-22.291,14.454-2.893-17.246-.036,22.6-14.08,8.4L204.277,135.4l.147,21.722-23.672,14.067Z"/>
        <path id="패스_566" data-name="패스 566" d="M207.506,157.408a1.247,1.247,0,0,1-.884-.091,1.326,1.326,0,0,1-.714-1.005l-6.2-43.133.266,39.1a1.341,1.341,0,0,1-.646,1.167L181.337,164.14a1.231,1.231,0,0,1-.321.135,1.258,1.258,0,0,1-1.027-.174,1.353,1.353,0,0,1-.578-1.258,470.1,470.1,0,0,0,1.733-74.733,1.348,1.348,0,0,1,.616-1.219l20.5-12.94a1.239,1.239,0,0,1,.348-.153,1.259,1.259,0,0,1,.863.079,1.331,1.331,0,0,1,.733,1l3.284,20.974.137-20.351a1.346,1.346,0,0,1,.608-1.123L227.892,61.7a1.282,1.282,0,0,1,.36-.159,1.251,1.251,0,0,1,.874.085,1.33,1.33,0,0,1,.727,1.033,503.018,503.018,0,0,0,10.437,58.05l2.479,9.92a1.356,1.356,0,0,1-.565,1.464L224.768,143.4a1.292,1.292,0,0,1-.363.161,1.254,1.254,0,0,1-.847-.073,1.326,1.326,0,0,1-.745-.99l-4.772-28.45-.058,36.4a1.343,1.343,0,0,1-.648,1.154l-9.508,5.672A1.257,1.257,0,0,1,207.506,157.408Z" fill="#fff"/>
        <path id="패스_567" data-name="패스 567" d="M182.657,164.18A469.253,469.253,0,0,0,184.4,89.228l20.5-12.94,5.74,36.66.244-36.241,19.654-12.68a501.975,501.975,0,0,0,10.468,58.21q1.251,5.01,2.478,9.921l-17.437,11.306-7.306-43.57-.085,51.746-9.508,5.673-8.9-61.868.4,58.046Z" fill="#ffcd00"/>
        <path id="패스_568" data-name="패스 568" d="M228.574,62.83h0m0,0a501.966,501.966,0,0,0,10.467,58.209q1.253,5.01,2.478,9.921l-17.436,11.306L216.777,98.7l-.084,51.747-9.509,5.673-8.9-61.868.4,58.046-17.987,10.689a469.49,469.49,0,0,0,1.738-74.952l20.5-12.941,5.74,36.661.244-36.242L228.574,62.83M202.935,75.09h0m24.992-14.843c-.034.009-.068.018-.1.029a2.539,2.539,0,0,0-.669.322l-19.6,12.648a2.685,2.685,0,0,0-1.214,2.245l-.03,4.464-.817-5.216a2.822,2.822,0,0,0-.06-.315,2.573,2.573,0,0,0-3.109-1.925l-.035.008-.1.029a2.482,2.482,0,0,0-.653.309L181.089,85.752a2.7,2.7,0,0,0-1.232,2.439,468.63,468.63,0,0,1-1.729,74.512,2.7,2.7,0,0,0,1.158,2.516,2.515,2.515,0,0,0,2.693.078l17.986-10.69a2.686,2.686,0,0,0,1.3-2.333l-.139-20.164,3.51,24.4a2.664,2.664,0,0,0,1.429,2.012,2.5,2.5,0,0,0,1.768.18,2.546,2.546,0,0,0,.643-.272l9.509-5.671a2.693,2.693,0,0,0,1.292-2.309l.033-21.057,2.236,13.332a2.656,2.656,0,0,0,1.49,1.982,2.512,2.512,0,0,0,2.421-.177l17.436-11.306a2.708,2.708,0,0,0,1.128-2.928l-2.478-9.921a501.462,501.462,0,0,1-10.4-57.81,2.684,2.684,0,0,0-.07-.4,2.572,2.572,0,0,0-3.105-1.927l-.038.011Z"/>
      </g>
      <g id="그룹_157" data-name="그룹 157">
        <path id="패스_569" data-name="패스 569" d="M92.741,197.45c-8.15,2.179-13.718-2.771-16.955-7.306a37.227,37.227,0,0,1-5.524-12.594,68.825,68.825,0,0,1-1.812-16.337,90.848,90.848,0,0,1,5.32-30.75c4.553-12.831,10.987-21.1,19.12-24.584a18.507,18.507,0,0,1,2.539-.885c8.108-2.168,13.628,2.818,16.831,7.384a38.341,38.341,0,0,1,5.7,12.922,69.79,69.79,0,0,1,1.855,16.087,90.038,90.038,0,0,1-5.438,30.724c-4.569,12.758-10.978,20.98-19.051,24.438A19.1,19.1,0,0,1,92.741,197.45Zm-.794-24.931a3.445,3.445,0,0,0,3.026.416,7.425,7.425,0,0,0,.975-.343c2.64-1.129,4.727-3.827,6.205-8.013a33.382,33.382,0,0,0,1.839-11.732,36.408,36.408,0,0,0-2.626-13.531c-1.667-3.83-2.944-3.49-3.364-3.378a2.77,2.77,0,0,0-.4.142c-1.723.738-4.231,3.285-6.387,11.228a56.031,56.031,0,0,0-2.3,15.1,26.826,26.826,0,0,0,.675,5.965A7.04,7.04,0,0,0,91.947,172.519Z"/>
        <path id="패스_570" data-name="패스 570" d="M89.266,192.867c-5.984,1.6-11.232-.691-15.6-6.808a35.843,35.843,0,0,1-5.313-12.134,67.436,67.436,0,0,1-1.772-16.008,89.473,89.473,0,0,1,5.242-30.288c4.424-12.464,10.615-20.474,18.4-23.809a17.453,17.453,0,0,1,2.368-.826c5.945-1.59,11.147.723,15.464,6.876a37.017,37.017,0,0,1,5.493,12.473,68.465,68.465,0,0,1,1.813,15.767,88.67,88.67,0,0,1-5.357,30.246c-4.44,12.4-10.608,20.359-18.335,23.669A17.918,17.918,0,0,1,89.266,192.867Zm5.26-61.512a4.208,4.208,0,0,0-.572.2c-2.891,1.239-5.291,5.31-7.134,12.1a57.161,57.161,0,0,0-2.351,15.482,28.149,28.149,0,0,0,.715,6.277,8.278,8.278,0,0,0,2.892,4.922,4.667,4.667,0,0,0,4.066.6h0a8.442,8.442,0,0,0,1.145-.4c2.987-1.279,5.316-4.236,6.924-8.788a34.794,34.794,0,0,0,1.917-12.211,37.808,37.808,0,0,0-2.739-14.058C97.281,130.618,95.207,131.173,94.526,131.355Z" fill="#fff"/>
        <path id="패스_571" data-name="패스 571" d="M92.688,106.25q9.508-4.072,16.3,5.6a35.551,35.551,0,0,1,5.287,12.024,66.878,66.878,0,0,1,1.772,15.447,86.885,86.885,0,0,1-5.277,29.767q-6.5,18.135-17.619,22.9-9.6,4.111-16.475-5.526a34.361,34.361,0,0,1-5.1-11.675A65.812,65.812,0,0,1,69.84,159.11,87.7,87.7,0,0,1,75,129.285Q81.475,111.054,92.688,106.25Zm2.737,25.269q-4.937,2.115-7.884,12.973a58.31,58.31,0,0,0-2.4,15.847,29.394,29.394,0,0,0,.757,6.607,9.491,9.491,0,0,0,3.407,5.685q2.76,1.911,6.438.333,5.023-2.149,7.642-9.562a35.967,35.967,0,0,0,2-12.69,38.956,38.956,0,0,0-2.843-14.563Q99.731,129.676,95.425,131.519Z" fill="#ffcd00"/>
        <path id="패스_572" data-name="패스 572" d="M92.921,104.285q8.109-2.169,14.1,6.369a35.5,35.5,0,0,1,5.286,12.023,66.885,66.885,0,0,1,1.774,15.447,86.934,86.934,0,0,1-5.277,29.768q-6.5,18.135-17.619,22.9a16.728,16.728,0,0,1-2.241.781q-8.177,2.186-14.235-6.307a34.355,34.355,0,0,1-5.1-11.676,65.752,65.752,0,0,1-1.731-15.678,87.722,87.722,0,0,1,5.163-29.826q6.471-18.231,17.685-23.035a16.364,16.364,0,0,1,2.2-.767m-.456,67.942a9.671,9.671,0,0,0,1.316-.46q5.023-2.151,7.643-9.564a36,36,0,0,0,1.994-12.689,38.976,38.976,0,0,0-2.843-14.563q-2.562-5.907-6.372-4.889a5.588,5.588,0,0,0-.743.26q-4.935,2.115-7.883,12.973a58.3,58.3,0,0,0-2.4,15.847,29.4,29.4,0,0,0,.756,6.606,9.5,9.5,0,0,0,3.406,5.685,5.908,5.908,0,0,0,5.124.794M92.277,101.7l.646,2.584-.646-2.584h0a18.612,18.612,0,0,0-2.539.887C81.6,106.071,75.17,114.34,70.618,127.167A90.855,90.855,0,0,0,65.3,157.926a68.772,68.772,0,0,0,1.813,16.333,37.167,37.167,0,0,0,5.52,12.588,19.278,19.278,0,0,0,7.651,6.7,13.7,13.7,0,0,0,9.307.613,19.022,19.022,0,0,0,2.583-.9c8.071-3.457,14.482-11.679,19.05-24.438a89.981,89.981,0,0,0,5.437-30.7V138.1a69.892,69.892,0,0,0-1.853-16.087,38.388,38.388,0,0,0-5.7-12.931,19.19,19.19,0,0,0-7.569-6.731,13.491,13.491,0,0,0-9.256-.646Zm-6.519,57.417a55.908,55.908,0,0,1,2.3-15.078l.007-.024c2.156-7.943,4.663-10.491,6.386-11.227a2.953,2.953,0,0,1,.4-.143c.42-.111,1.7-.453,3.366,3.379a36.437,36.437,0,0,1,2.624,13.523A33.4,33.4,0,0,1,99,161.283c-1.48,4.191-3.568,6.887-6.207,8.018a7.319,7.319,0,0,1-.975.342,3.438,3.438,0,0,1-3.027-.417,7.035,7.035,0,0,1-2.36-4.145,26.814,26.814,0,0,1-.675-5.963Z"/>
      </g>
      <g id="그룹_158" data-name="그룹 158">
        <path id="패스_573" data-name="패스 573" d="M150.177,185.364c-8.151,2.179-13.72-2.771-16.957-7.306a37.226,37.226,0,0,1-5.523-12.594,68.785,68.785,0,0,1-1.812-16.337,90.856,90.856,0,0,1,5.319-30.751c4.554-12.83,10.987-21.1,19.121-24.583a18.647,18.647,0,0,1,2.538-.887c8.109-2.167,13.628,2.82,16.832,7.385a38.358,38.358,0,0,1,5.7,12.923,69.891,69.891,0,0,1,1.853,16.086,90.089,90.089,0,0,1-5.436,30.725c-4.57,12.758-10.981,20.981-19.053,24.438A19.215,19.215,0,0,1,150.177,185.364Zm-.8-24.933a3.436,3.436,0,0,0,3.026.417,7.283,7.283,0,0,0,.976-.342c2.639-1.131,4.727-3.827,6.205-8.013a33.412,33.412,0,0,0,1.839-11.732A36.44,36.44,0,0,0,158.8,127.23c-1.668-3.832-2.945-3.49-3.365-3.379a3.045,3.045,0,0,0-.4.142c-1.723.738-4.229,3.285-6.386,11.229a55.869,55.869,0,0,0-2.3,15.1,26.762,26.762,0,0,0,.674,5.964A7.027,7.027,0,0,0,149.381,160.431Z"/>
        <path id="패스_574" data-name="패스 574" d="M146.7,180.779c-5.984,1.6-11.231-.69-15.594-6.807a35.828,35.828,0,0,1-5.313-12.133,67.394,67.394,0,0,1-1.772-16.009,89.467,89.467,0,0,1,5.242-30.287c4.423-12.465,10.614-20.475,18.4-23.81a17.367,17.367,0,0,1,2.368-.826c5.946-1.589,11.148.724,15.465,6.876a36.975,36.975,0,0,1,5.491,12.473,68.472,68.472,0,0,1,1.815,15.767,88.7,88.7,0,0,1-5.358,30.246c-4.439,12.4-10.607,20.36-18.334,23.67A17.867,17.867,0,0,1,146.7,180.779Zm5.26-61.511a4.241,4.241,0,0,0-.571.2c-2.891,1.239-5.291,5.309-7.135,12.1a57.245,57.245,0,0,0-2.351,15.482,28.149,28.149,0,0,0,.715,6.277,8.276,8.276,0,0,0,2.893,4.922,4.66,4.66,0,0,0,4.066.6h0a8.366,8.366,0,0,0,1.146-.4c2.986-1.279,5.316-4.236,6.923-8.787a34.779,34.779,0,0,0,1.917-12.211,37.794,37.794,0,0,0-2.739-14.059C154.716,118.531,152.642,119.086,151.96,119.268Z" fill="#fff"/>
        <path id="패스_575" data-name="패스 575" d="M150.122,94.164q9.509-4.073,16.3,5.6a35.533,35.533,0,0,1,5.287,12.024,66.82,66.82,0,0,1,1.772,15.446A86.9,86.9,0,0,1,168.2,157q-6.5,18.134-17.619,22.9-9.6,4.111-16.475-5.525a34.364,34.364,0,0,1-5.1-11.676,65.76,65.76,0,0,1-1.731-15.679,87.726,87.726,0,0,1,5.163-29.826Q138.909,98.968,150.122,94.164Zm2.738,25.269q-4.937,2.114-7.884,12.973a58.343,58.343,0,0,0-2.4,15.848,29.375,29.375,0,0,0,.757,6.6,9.5,9.5,0,0,0,3.407,5.686q2.76,1.909,6.439.334,5.022-2.152,7.641-9.565a35.955,35.955,0,0,0,2-12.689,38.976,38.976,0,0,0-2.843-14.563Q157.166,117.59,152.86,119.433Z" fill="#ffcd00"/>
        <path id="패스_576" data-name="패스 576" d="M150.357,92.2q8.109-2.169,14.1,6.369a35.5,35.5,0,0,1,5.286,12.021,66.738,66.738,0,0,1,1.774,15.448,86.892,86.892,0,0,1-5.277,29.769q-6.5,18.135-17.619,22.9a16.585,16.585,0,0,1-2.24.782q-8.177,2.186-14.235-6.307a34.355,34.355,0,0,1-5.1-11.676,65.752,65.752,0,0,1-1.731-15.678A87.673,87.673,0,0,1,130.474,116q6.471-18.231,17.684-23.035a16.021,16.021,0,0,1,2.2-.767M149.9,160.14a9.65,9.65,0,0,0,1.315-.459q5.023-2.152,7.643-9.564a35.986,35.986,0,0,0,1.994-12.69,38.966,38.966,0,0,0-2.842-14.562q-2.563-5.907-6.372-4.889a5.724,5.724,0,0,0-.743.259q-4.935,2.113-7.883,12.973a58.315,58.315,0,0,0-2.4,15.848,29.512,29.512,0,0,0,.756,6.606,9.505,9.505,0,0,0,3.407,5.685,5.91,5.91,0,0,0,5.124.793m-.188-70.525.645,2.584-.646-2.584h0a18.919,18.919,0,0,0-2.539.885c-8.134,3.484-14.566,11.754-19.119,24.581a90.842,90.842,0,0,0-5.322,30.758,68.841,68.841,0,0,0,1.812,16.334,37.207,37.207,0,0,0,5.521,12.588,19.277,19.277,0,0,0,7.652,6.7,13.7,13.7,0,0,0,9.307.614,19.377,19.377,0,0,0,2.582-.9c8.072-3.458,14.482-11.681,19.051-24.44a90.07,90.07,0,0,0,5.438-30.7v-.019a69.936,69.936,0,0,0-1.854-16.086,38.4,38.4,0,0,0-5.7-12.932,19.193,19.193,0,0,0-7.569-6.73,13.485,13.485,0,0,0-9.256-.646Zm-6.519,57.416a55.858,55.858,0,0,1,2.3-15.077.138.138,0,0,1,.007-.024c2.158-7.943,4.663-10.49,6.386-11.229a2.98,2.98,0,0,1,.4-.141c.421-.112,1.7-.454,3.366,3.377a36.449,36.449,0,0,1,2.625,13.526,33.392,33.392,0,0,1-1.836,11.733c-1.481,4.191-3.569,6.888-6.208,8.018a7.1,7.1,0,0,1-.975.343,3.439,3.439,0,0,1-3.026-.417,7.033,7.033,0,0,1-2.361-4.146,26.864,26.864,0,0,1-.674-5.963Z"/>
      </g>
      <g id="그룹_159" data-name="그룹 159">
        <path id="패스_577" data-name="패스 577" d="M263.693,149.214a10.008,10.008,0,0,1-3.538.322l-.036,0a6.923,6.923,0,0,1-6.208-5.611c-.915-3.665-.086-7.719,2.467-12.05a21.706,21.706,0,0,1,7.572-7.721,13.315,13.315,0,0,1,3.415-1.488,9.927,9.927,0,0,1,3.965-.264,6.892,6.892,0,0,1,6.271,5.57c.923,3.695.01,7.764-2.71,12.1a22.052,22.052,0,0,1-7.461,7.518A14.8,14.8,0,0,1,263.693,149.214Zm-5.84-89.128L283.422,54l-.913,4.146c-2.55,11.576-4.336,20.646-5.308,26.957a231.4,231.4,0,0,0-2.413,27.262l-.056,1.8-17.772,6.71Z"/>
        <path id="패스_578" data-name="패스 578" d="M260.217,144.63a8.769,8.769,0,0,1-3.1.285,5.63,5.63,0,0,1-5.114-4.619c-.824-3.3-.045-7.01,2.318-11.022a20.415,20.415,0,0,1,7.11-7.257,12.04,12.04,0,0,1,3.1-1.354,8.711,8.711,0,0,1,3.492-.231,5.6,5.6,0,0,1,5.171,4.579c.829,3.317-.026,7.03-2.543,11.034a20.714,20.714,0,0,1-7.02,7.087A13.485,13.485,0,0,1,260.217,144.63Zm-3.451-29.583a1.258,1.258,0,0,1-1.071-.206,1.347,1.347,0,0,1-.542-1.107l.8-54.828a1.326,1.326,0,0,1,.967-1.272l19.627-4.669a1.26,1.26,0,0,1,1.2.356,1.366,1.366,0,0,1,.347,1.241c-2.556,11.6-4.347,20.7-5.324,27.043a232.589,232.589,0,0,0-2.428,27.429,1.333,1.333,0,0,1-.847,1.21l-12.615,4.763C256.845,115.022,256.8,115.035,256.766,115.047Z" fill="#fff"/>
        <path id="패스_579" data-name="패스 579" d="M264.037,124.375a8.684,8.684,0,0,1,5.8-1.42,4.324,4.324,0,0,1,4.074,3.588q1.107,4.43-2.375,9.972a19.367,19.367,0,0,1-6.581,6.657,9.509,9.509,0,0,1-5.754,1.612,4.341,4.341,0,0,1-3.984-3.625q-1.105-4.428,2.172-9.992A19,19,0,0,1,264.037,124.375Zm-4.825-64.251,19.593-4.66q-3.864,17.542-5.341,27.129a232.609,232.609,0,0,0-2.442,27.594l-12.616,4.764Z" fill="#ffcd00"/>
        <path id="패스_580" data-name="패스 580" d="M257.247,58.925l19.594-4.659q-3.865,17.542-5.341,27.129a232.831,232.831,0,0,0-2.442,27.6l-12.615,4.764.8-54.829m7.611,63.03a7.419,7.419,0,0,1,3.018-.2,4.325,4.325,0,0,1,4.074,3.587q1.105,4.431-2.376,9.974a19.355,19.355,0,0,1-6.581,6.656,12.2,12.2,0,0,1-3.1,1.365,7.467,7.467,0,0,1-2.656.247,4.339,4.339,0,0,1-3.983-3.624q-1.107-4.43,2.172-9.994a19.013,19.013,0,0,1,6.645-6.791,10.791,10.791,0,0,1,2.785-1.222M256.6,56.341a2.655,2.655,0,0,0-1.934,2.543l-.806,54.83a2.708,2.708,0,0,0,1.085,2.215,2.511,2.511,0,0,0,2.14.409c.08-.022.161-.047.24-.077l12.615-4.763a2.664,2.664,0,0,0,1.694-2.421,230.522,230.522,0,0,1,2.413-27.267c.971-6.305,2.757-15.375,5.306-26.951a2.727,2.727,0,0,0-.694-2.482,2.516,2.516,0,0,0-2.4-.711l-19.593,4.659-.067.016Zm7.61,63.03a13.3,13.3,0,0,0-3.428,1.495,21.693,21.693,0,0,0-7.549,7.7l-.01.018c-2.553,4.33-3.382,8.384-2.467,12.049a6.922,6.922,0,0,0,6.208,5.611l.036,0a10.032,10.032,0,0,0,3.538-.322,14.758,14.758,0,0,0,3.747-1.639,22.007,22.007,0,0,0,7.454-7.518c2.718-4.329,3.629-8.4,2.706-12.088a6.891,6.891,0,0,0-6.271-5.57,9.942,9.942,0,0,0-3.964.264Z"/>
      </g>
    </g>
  </g>
</svg>
