<svg xmlns="http://www.w3.org/2000/svg" xmlns:xlink="http://www.w3.org/1999/xlink" width="159.718" height="164.657" viewBox="0 0 159.718 164.657">
  <defs>
    <linearGradient id="linear-gradient" x1="28.355" y1="37.503" x2="29.214" y2="39.358" gradientUnits="objectBoundingBox">
      <stop offset="0.004" stop-color="#b7c9c8"/>
      <stop offset="0.992" stop-color="#758bbf"/>
    </linearGradient>
    <linearGradient id="linear-gradient-2" x1="24.869" y1="19.037" x2="25.702" y2="19.938" xlink:href="#linear-gradient"/>
    <linearGradient id="linear-gradient-3" x1="82.669" y1="69.71" x2="85.248" y2="73.076" gradientUnits="objectBoundingBox">
      <stop offset="0.004" stop-color="#95b18d"/>
      <stop offset="0.992" stop-color="#65798d"/>
    </linearGradient>
    <linearGradient id="linear-gradient-4" x1="89.282" y1="64.595" x2="91.968" y2="67.91" xlink:href="#linear-gradient-3"/>
    <linearGradient id="linear-gradient-5" x1="157.482" y1="193.159" x2="162.748" y2="202.956" xlink:href="#linear-gradient-3"/>
    <linearGradient id="linear-gradient-6" x1="48.591" y1="22.058" x2="50.26" y2="23.089" xlink:href="#linear-gradient-3"/>
    <linearGradient id="linear-gradient-7" x1="78.791" y1="25.476" x2="81.409" y2="26.718" xlink:href="#linear-gradient-3"/>
    <linearGradient id="linear-gradient-8" x1="13.342" y1="9.788" x2="12.909" y2="9.033" gradientUnits="objectBoundingBox">
      <stop offset="0" stop-color="#ceb0d6"/>
      <stop offset="1" stop-color="#e8f8ff"/>
    </linearGradient>
    <linearGradient id="linear-gradient-9" x1="14.499" y1="17.888" x2="14.024" y2="16.442" gradientUnits="objectBoundingBox">
      <stop offset="0" stop-color="#9f8da4"/>
      <stop offset="1" stop-color="#c2ecff"/>
    </linearGradient>
    <linearGradient id="linear-gradient-10" x1="13.539" y1="12.519" x2="13.099" y2="11.53" xlink:href="#linear-gradient-9"/>
    <linearGradient id="linear-gradient-11" x1="19.067" y1="9.631" x2="18.5" y2="9.319" gradientUnits="objectBoundingBox">
      <stop offset="0.001" stop-color="#4f3d7d"/>
      <stop offset="1" stop-color="#a582ff"/>
    </linearGradient>
    <linearGradient id="linear-gradient-12" x1="19.068" y1="9.731" x2="18.506" y2="9.418" xlink:href="#linear-gradient-11"/>
    <linearGradient id="linear-gradient-13" x1="28.413" y1="15.443" x2="28.772" y2="15.443" xlink:href="#linear-gradient-11"/>
    <linearGradient id="linear-gradient-14" x1="41.625" y1="39.059" x2="42.329" y2="39.059" xlink:href="#linear-gradient-9"/>
    <linearGradient id="linear-gradient-15" x1="-25.911" y1="13.459" x2="-23.582" y2="14.013" xlink:href="#linear-gradient"/>
    <linearGradient id="linear-gradient-16" x1="39.619" y1="0.518" x2="41.218" y2="1.117" xlink:href="#linear-gradient"/>
    <linearGradient id="linear-gradient-17" x1="-53.534" y1="38.46" x2="-48.807" y2="40.089" xlink:href="#linear-gradient-3"/>
    <linearGradient id="linear-gradient-18" x1="-55.014" y1="40.099" x2="-50.079" y2="41.783" xlink:href="#linear-gradient-3"/>
    <linearGradient id="linear-gradient-19" x1="-119.46" y1="58.63" x2="-106.625" y2="61.951" xlink:href="#linear-gradient-3"/>
    <linearGradient id="linear-gradient-20" x1="-14.897" y1="17.476" x2="-13.237" y2="18.46" xlink:href="#linear-gradient-3"/>
    <linearGradient id="linear-gradient-21" x1="-16.231" y1="32.801" x2="-14.343" y2="34.652" xlink:href="#linear-gradient-3"/>
    <linearGradient id="linear-gradient-22" x1="-6.085" y1="5.492" x2="-6.782" y2="4.983" xlink:href="#linear-gradient-8"/>
    <linearGradient id="linear-gradient-23" x1="-14.25" y1="6.058" x2="-15.74" y2="5.487" xlink:href="#linear-gradient-9"/>
    <linearGradient id="linear-gradient-24" x1="-8.692" y1="5.612" x2="-9.644" y2="5.089" xlink:href="#linear-gradient-9"/>
    <linearGradient id="linear-gradient-25" x1="-5.495" y1="7.712" x2="-6.056" y2="7.393" xlink:href="#linear-gradient-11"/>
    <linearGradient id="linear-gradient-26" x1="-5.59" y1="7.712" x2="-6.155" y2="7.396" xlink:href="#linear-gradient-11"/>
    <linearGradient id="linear-gradient-27" x1="-10.158" y1="11.053" x2="-9.765" y2="11.053" xlink:href="#linear-gradient-11"/>
    <linearGradient id="linear-gradient-28" x1="-27.05" y1="16.389" x2="-25.544" y2="16.389" xlink:href="#linear-gradient-9"/>
    <linearGradient id="linear-gradient-29" x1="7.513" y1="3.359" x2="7.334" y2="2.399" xlink:href="#linear-gradient-8"/>
    <linearGradient id="linear-gradient-30" x1="7.569" y1="3.822" x2="7.389" y2="2.674" xlink:href="#linear-gradient-9"/>
    <linearGradient id="linear-gradient-31" x1="17.104" y1="6.906" x2="16.827" y2="5.986" xlink:href="#linear-gradient-9"/>
    <linearGradient id="linear-gradient-32" x1="8.977" y1="6.259" x2="8.76" y2="4.107" xlink:href="#linear-gradient-9"/>
    <linearGradient id="linear-gradient-33" x1="13.061" y1="12.166" x2="12.911" y2="10.165" xlink:href="#linear-gradient-9"/>
    <linearGradient id="linear-gradient-34" x1="18.075" y1="7.253" x2="17.811" y2="6.369" xlink:href="#linear-gradient-9"/>
    <linearGradient id="linear-gradient-35" x1="15.966" y1="7.126" x2="15.563" y2="5.975" xlink:href="#linear-gradient-11"/>
    <linearGradient id="linear-gradient-36" x1="18.106" y1="7.24" x2="17.842" y2="6.357" gradientUnits="objectBoundingBox">
      <stop offset="0" stop-color="#8e7aa3"/>
      <stop offset="1" stop-color="#ced4d6"/>
    </linearGradient>
    <linearGradient id="linear-gradient-37" x1="21.648" y1="7.701" x2="21.822" y2="8.274" xlink:href="#linear-gradient-9"/>
    <linearGradient id="linear-gradient-38" x1="23.307" y1="8.977" x2="23.048" y2="8.124" gradientUnits="objectBoundingBox">
      <stop offset="0" stop-color="#2e54a4"/>
      <stop offset="1" stop-color="#3dacff"/>
    </linearGradient>
    <linearGradient id="linear-gradient-39" x1="19.527" y1="9.36" x2="19.379" y2="8.728" xlink:href="#linear-gradient-9"/>
    <linearGradient id="linear-gradient-40" x1="100.174" y1="22.431" x2="97.356" y2="15.494" xlink:href="#linear-gradient-9"/>
    <linearGradient id="linear-gradient-41" x1="32.51" y1="16.499" x2="32.15" y2="14.93" xlink:href="#linear-gradient-38"/>
    <linearGradient id="linear-gradient-42" x1="26.166" y1="15.706" x2="25.874" y2="14.183" xlink:href="#linear-gradient-38"/>
    <linearGradient id="linear-gradient-43" x1="27.053" y1="16.62" x2="26.751" y2="14.948" xlink:href="#linear-gradient-38"/>
    <linearGradient id="linear-gradient-44" x1="28.95" y1="22.242" x2="29.792" y2="22.242" xlink:href="#linear-gradient-38"/>
    <linearGradient id="linear-gradient-45" x1="151.476" y1="38.707" x2="152.692" y2="38.707" xlink:href="#linear-gradient-38"/>
    <linearGradient id="linear-gradient-46" x1="20.451" y1="10.825" x2="20.151" y2="9.434" gradientUnits="objectBoundingBox">
      <stop offset="0" stop-color="#775e7e"/>
      <stop offset="1" stop-color="#bab394"/>
    </linearGradient>
    <linearGradient id="linear-gradient-47" x1="89.003" y1="36.618" x2="86.82" y2="29.703" xlink:href="#linear-gradient-9"/>
    <linearGradient id="linear-gradient-48" x1="46.793" y1="23.183" x2="45.525" y2="19.523" xlink:href="#linear-gradient-11"/>
    <linearGradient id="linear-gradient-49" x1="42.481" y1="15.977" x2="41.993" y2="15.19" xlink:href="#linear-gradient-11"/>
    <linearGradient id="linear-gradient-50" x1="68.839" y1="51.984" x2="68.045" y2="49.425" xlink:href="#linear-gradient-11"/>
    <linearGradient id="linear-gradient-51" x1="57.62" y1="28.316" x2="56.959" y2="26.872" xlink:href="#linear-gradient-9"/>
    <linearGradient id="linear-gradient-52" x1="34.545" y1="15.175" x2="33.612" y2="9.438" xlink:href="#linear-gradient-9"/>
    <linearGradient id="linear-gradient-53" x1="29.685" y1="12.222" x2="28.888" y2="7.721" xlink:href="#linear-gradient-9"/>
    <linearGradient id="linear-gradient-54" x1="20.881" y1="7.957" x2="21.105" y2="9.86" xlink:href="#linear-gradient-9"/>
    <linearGradient id="linear-gradient-55" x1="34.05" y1="14.023" x2="33.9" y2="12.955" xlink:href="#linear-gradient"/>
    <linearGradient id="linear-gradient-56" x1="69.46" y1="28.375" x2="69.914" y2="32.554" xlink:href="#linear-gradient-3"/>
    <linearGradient id="linear-gradient-57" x1="47.663" y1="18.294" x2="48.105" y2="22.265" xlink:href="#linear-gradient-3"/>
    <linearGradient id="linear-gradient-58" x1="17.863" y1="7.497" x2="17.524" y2="5.656" xlink:href="#linear-gradient-8"/>
    <linearGradient id="linear-gradient-59" x1="25.564" y1="11.363" x2="25.339" y2="10.003" xlink:href="#linear-gradient-9"/>
    <linearGradient id="linear-gradient-60" x1="22.129" y1="9.45" x2="21.946" y2="8.193" xlink:href="#linear-gradient-11"/>
    <linearGradient id="linear-gradient-61" x1="22.13" y1="9.557" x2="21.965" y2="8.414" xlink:href="#linear-gradient-11"/>
    <linearGradient id="linear-gradient-62" x1="39.252" y1="15.489" x2="40.053" y2="15.489" xlink:href="#linear-gradient-11"/>
    <linearGradient id="linear-gradient-63" x1="48.052" y1="19.562" x2="49.392" y2="19.562" xlink:href="#linear-gradient-9"/>
    <linearGradient id="linear-gradient-64" x1="58.205" y1="10.681" x2="59.111" y2="10.681" xlink:href="#linear-gradient-11"/>
    <linearGradient id="linear-gradient-65" x1="59.494" y1="11.535" x2="60.42" y2="11.535" xlink:href="#linear-gradient-9"/>
    <linearGradient id="linear-gradient-66" x1="3.633" y1="19.326" x2="4.183" y2="19.326" xlink:href="#linear-gradient-11"/>
    <linearGradient id="linear-gradient-67" x1="4.081" y1="19.349" x2="4.699" y2="19.349" xlink:href="#linear-gradient-9"/>
  </defs>
  <g id="그룹_146" data-name="그룹 146" transform="translate(178.616 -45.835)">
    <g id="그룹_144" data-name="그룹 144">
      <path id="패스_436" data-name="패스 436" d="M-62.881,112.848l-23.256,4.177,3.239,2.968,20.937-4.537Z" fill="url(#linear-gradient)"/>
      <path id="패스_437" data-name="패스 437" d="M-85.8,112.245l24.279-2.258-5.063-12.734L-84.045,95.6s-5.836,8.559-5.675,9.68a11.215,11.215,0,0,0,1.145,2.4c4.743-.247,9.46-.876,14.2-1.184a1.776,1.776,0,0,1,1.684,1.843,1.809,1.809,0,0,1-1.843,1.686c-4.008.26-8,.75-12.01,1.045C-86.108,111.771-85.8,112.245-85.8,112.245Zm9.585-11.736a1.368,1.368,0,0,1-.347-.605,1.315,1.315,0,0,1-.112-.665,1.78,1.78,0,0,1,.57-1.227c.132-.089.26-.178.39-.269a1.8,1.8,0,0,1,.883-.189c.819.091,1.644.131,2.468.168a1.318,1.318,0,0,1,.652.172,1.342,1.342,0,0,1,.573.4,1.337,1.337,0,0,1,.346.6,1.294,1.294,0,0,1,.112.666,1.761,1.761,0,0,1-.572,1.222c-.128.091-.257.181-.39.271a1.75,1.75,0,0,1-.879.191c-.824-.036-1.649-.077-2.469-.167a1.348,1.348,0,0,1-.654-.174A1.356,1.356,0,0,1-76.219,100.509Z" fill="url(#linear-gradient-2)"/>
      <path id="패스_438" data-name="패스 438" d="M-70.008,114.127l7.127-1.279.92,2.608-6.141,1.329A31.8,31.8,0,0,1-70.008,114.127Z" opacity="0.68" fill="url(#linear-gradient-3)" style="mix-blend-mode: multiply;isolation: isolate"/>
      <path id="패스_439" data-name="패스 439" d="M-80.4,116a20.021,20.021,0,0,0,1.991,3.025l-4.486.973-3.239-2.968Z" opacity="0.68" fill="url(#linear-gradient-4)" style="mix-blend-mode: multiply;isolation: isolate"/>
      <path id="패스_440" data-name="패스 440" d="M-82.085,111.9l-3.719.344s-.3-.474-.739-1.171c1.381-.1,2.762-.228,4.139-.359Q-82.258,111.312-82.085,111.9Z" opacity="0.68" fill="url(#linear-gradient-5)" style="mix-blend-mode: multiply;isolation: isolate"/>
      <path id="패스_441" data-name="패스 441" d="M-72.8,108.867a1.624,1.624,0,0,0,.111-.524,1.912,1.912,0,0,0-.944-1.66,36.007,36.007,0,0,1-1.467-5.616c.035,0,.071.014.107.015.82.09,1.645.131,2.469.167a1.75,1.75,0,0,0,.879-.191c.133-.09.262-.18.39-.271a1.761,1.761,0,0,0,.572-1.222A1.294,1.294,0,0,0-70.8,98.9a1.337,1.337,0,0,0-.346-.6,1.342,1.342,0,0,0-.573-.4,1.318,1.318,0,0,0-.652-.172c-.824-.037-1.649-.077-2.468-.168a1.7,1.7,0,0,0-.691.123c-.032-.428-.063-.853-.077-1.276l9.015.852,5.063,12.734-10.3.96C-72.172,110.263-72.5,109.573-72.8,108.867Z" opacity="0.68" fill="url(#linear-gradient-6)" style="mix-blend-mode: multiply;isolation: isolate"/>
      <path id="패스_442" data-name="패스 442" d="M-82.963,107.251c-1.868.173-3.738.335-5.612.433a11.215,11.215,0,0,1-1.145-2.4c-.161-1.121,5.675-9.68,5.675-9.68l3.295.311A20.632,20.632,0,0,0-82.963,107.251Z" opacity="0.68" fill="url(#linear-gradient-7)" style="mix-blend-mode: multiply;isolation: isolate"/>
      <path id="패스_443" data-name="패스 443" d="M-73.694,91.607s18.97,1.519,24.53,4.709,25.793,27.192,26.97,30.651l-1.618,1.486s-21.1-11.507-37.462-6.976C-61.274,121.477-76.682,103.171-73.694,91.607Z" fill="url(#linear-gradient-8)"/>
      <path id="패스_444" data-name="패스 444" d="M-69.527,109.21c.266.252.534.5.812.741,5.717,4.87,13.139,5.5,20.308,6.308,6.62.748,13.263,1.258,19.9,1.889,3.4,4.2,5.923,7.661,6.316,8.819l-1.618,1.486s-21.1-11.507-37.462-6.976A81.62,81.62,0,0,1-69.527,109.21Z" opacity="0.57" fill="url(#linear-gradient-9)" style="mix-blend-mode: multiply;isolation: isolate"/>
      <path id="패스_445" data-name="패스 445" d="M-73.248,100.328a19.669,19.669,0,0,0,2.348,3.641c5.119,6.229,13.718,7.468,21.04,4.982,3.06-1.038,6.69-2.447,9.356-4.62,7.832,8.35,17.507,20.274,18.31,22.636l-1.618,1.486s-21.1-11.507-37.462-6.976C-61.274,121.477-70.417,110.608-73.248,100.328Z" opacity="0.57" fill="url(#linear-gradient-10)" style="mix-blend-mode: multiply;isolation: isolate"/>
      <path id="패스_446" data-name="패스 446" d="M-52.3,92.943c2.837-4.114,32.06,31.1,33.405,35.063l-3.263,3S-37.3,124.53-50,122.522C-53.5,116.4-56,98.3-52.3,92.943Z" fill="url(#linear-gradient-11)"/>
      <path id="패스_447" data-name="패스 447" d="M-52.367,93.05q-.147,1.375-.232,2.756a38.126,38.126,0,0,0,.465,10.365c.3,1.356.578,4.466,2.4,4.489a2.688,2.688,0,0,0,2.156-1.291,4.679,4.679,0,0,0,.393-.744,16.547,16.547,0,0,0,3.022,5.29,21.629,21.629,0,0,0,11.233,6.326c2.707.65,5.931.818,8.156-.662a55.094,55.094,0,0,1,5.871,8.427l-3.263,3S-37.3,124.53-50,122.522C-53.475,116.443-55.967,98.534-52.367,93.05Z" opacity="0.49" fill="url(#linear-gradient-12)" style="mix-blend-mode: multiply;isolation: isolate"/>
      <path id="패스_448" data-name="패스 448" d="M-29.083,116.705a.948.948,0,0,1-.473.173c-3.51.292-7.4-2.886-9.778-5.083a50.341,50.341,0,0,1-7.892-9.343c-.224,1.013-.87,2.306-1.873,2.036a1.842,1.842,0,0,1-1.024-1.084,14.711,14.711,0,0,1-1.625-7.344c.264-3.322,2.349-1.928,4.125-.5A81.176,81.176,0,0,1-34.9,108.346c1.889,2.377,3.994,4.63,5.789,7.109a1.17,1.17,0,0,1,.313.814A.648.648,0,0,1-29.083,116.705Z" opacity="0.49" fill="url(#linear-gradient-13)" style="mix-blend-mode: screen;isolation: isolate"/>
      <path id="패스_449" data-name="패스 449" d="M-71.791,93.363a.943.943,0,0,0-.817.239.751.751,0,0,0-.1.519,3.467,3.467,0,0,0,1.254,1.961c2.707,2.621,5.785,5.251,9.529,5.7a3.837,3.837,0,0,0,2.761-.52,4.128,4.128,0,0,0,.984-1.173c.584-.942,2.083-3.219,1.8-4.385-.309-1.292-3.337-1.21-4.484-1.371A107.243,107.243,0,0,0-71.791,93.363Z" opacity="0.46" fill="url(#linear-gradient-14)" style="mix-blend-mode: screen;isolation: isolate"/>
    </g>
    <g id="그룹_145" data-name="그룹 145">
      <path id="패스_450" data-name="패스 450" d="M-120.292,165.327l6.243-22.787,2.665,3.492-6.4,20.446Z" fill="url(#linear-gradient-15)"/>
      <path id="패스_451" data-name="패스 451" d="M-119.94,141.6c-.652,3.966-1.5,7.9-2.119,11.869a1.809,1.809,0,0,1-1.843,1.687,1.78,1.78,0,0,1-1.685-1.844c.732-4.694,1.78-9.336,2.452-14.037a10.985,10.985,0,0,0-2.291-1.355c-1.1-.262-10.149,4.784-10.149,4.784l.081,17.535,12.23,6.181,4.425-23.977S-119.285,142.1-119.94,141.6Zm-11.1,9.943a1.33,1.33,0,0,1,.115.667c.016.824-.016,1.648-.055,2.472a1.748,1.748,0,0,1-.269.86c-.1.123-.2.243-.306.364a1.761,1.761,0,0,1-1.268.461,1.324,1.324,0,0,1-.653-.172,1.328,1.328,0,0,1-.569-.4,1.348,1.348,0,0,1-.35-.6,1.36,1.36,0,0,1-.112-.666c.036-.823.07-1.648.055-2.473a1.755,1.755,0,0,1,.266-.862c.1-.119.2-.241.305-.364a1.772,1.772,0,0,1,1.271-.458,1.3,1.3,0,0,1,.652.171,1.328,1.328,0,0,1,.572.4A1.328,1.328,0,0,1-131.042,151.543Z" fill="url(#linear-gradient-16)"/>
      <path id="패스_452" data-name="패스 452" d="M-118.38,158.343l-1.912,6.984,2.513,1.151,1.876-6Q-117.082,159.354-118.38,158.343Z" opacity="0.68" fill="url(#linear-gradient-17)" style="mix-blend-mode: multiply;isolation: isolate"/>
      <path id="패스_453" data-name="패스 453" d="M-115.589,148.157a20.2,20.2,0,0,1,2.835,2.254l1.37-4.38-2.665-3.491Z" opacity="0.68" fill="url(#linear-gradient-18)" style="mix-blend-mode: multiply;isolation: isolate"/>
      <path id="패스_454" data-name="패스 454" d="M-119.517,146.117l.678-3.674s-.446-.346-1.1-.843c-.225,1.367-.475,2.732-.729,4.093C-120.281,145.823-119.9,145.965-119.517,146.117Z" opacity="0.68" fill="url(#linear-gradient-19)" style="mix-blend-mode: multiply;isolation: isolate"/>
      <path id="패스_455" data-name="패스 455" d="M-123.37,155.092a1.75,1.75,0,0,1-.532.064,1.919,1.919,0,0,1-1.568-1.091,35.9,35.9,0,0,0-5.462-1.964c0,.037.007.073.005.109.016.824-.016,1.648-.055,2.472a1.748,1.748,0,0,1-.269.86c-.1.123-.2.243-.306.364a1.761,1.761,0,0,1-1.268.461,1.324,1.324,0,0,1-.653-.172,1.328,1.328,0,0,1-.569-.4,1.348,1.348,0,0,1-.35-.6,1.36,1.36,0,0,1-.112-.666c.036-.823.07-1.648.055-2.473a1.731,1.731,0,0,1,.183-.677c-.422-.071-.841-.139-1.264-.19l.041,9.055,12.23,6.181,1.878-10.172C-122.034,155.842-122.692,155.452-123.37,155.092Z" opacity="0.68" fill="url(#linear-gradient-20)" style="mix-blend-mode: multiply;isolation: isolate"/>
      <path id="패스_456" data-name="패스 456" d="M-124.069,144.825c.341-1.845.669-3.692.934-5.55a10.985,10.985,0,0,0-2.291-1.355c-1.1-.262-10.149,4.784-10.149,4.784l.015,3.307A20.635,20.635,0,0,1-124.069,144.825Z" opacity="0.68" fill="url(#linear-gradient-21)" style="mix-blend-mode: multiply;isolation: isolate"/>
      <path id="패스_457" data-name="패스 457" d="M-140.479,152.653s-.186,19.031,2.491,24.856,24.77,28.125,28.11,29.607l1.627-1.478s-9.57-22.049-3.593-37.937C-111.844,167.7-128.694,150.715-140.479,152.653Z" fill="url(#linear-gradient-22)"/>
      <path id="패스_458" data-name="패스 458" d="M-123.319,158.381c.225.29.451.58.662.878,4.341,6.128,4.3,13.576,4.464,20.789.151,6.661.065,13.324.1,19.987,3.883,3.758,7.1,6.587,8.215,7.081l1.627-1.478s-9.57-22.049-3.593-37.937A81.632,81.632,0,0,0-123.319,158.381Z" opacity="0.57" fill="url(#linear-gradient-23)" style="mix-blend-mode: multiply;isolation: isolate"/>
      <path id="패스_459" data-name="패스 459" d="M-131.834,153.88a19.611,19.611,0,0,1,3.415,2.666c5.747,5.655,6.211,14.331,3.077,21.4-1.307,2.955-3.035,6.444-5.44,8.9,7.617,8.548,18.626,19.253,20.9,20.265l1.627-1.478s-9.57-22.049-3.593-37.937C-111.844,167.7-121.851,157.621-131.834,153.88Z" opacity="0.57" fill="url(#linear-gradient-24)" style="mix-blend-mode: multiply;isolation: isolate"/>
      <path id="패스_460" data-name="패스 460" d="M-141.066,174.08c-4.35,2.456,28.1,34.716,31.928,36.412l3.28-2.982s-5.092-15.658-5.956-28.486C-117.592,174.992-135.4,170.877-141.066,174.08Z" fill="url(#linear-gradient-25)"/>
      <path id="패스_461" data-name="패스 461" d="M-140.954,174.025q1.383-.022,2.765.017a38.112,38.112,0,0,1,10.284,1.391c1.324.421,4.4.976,4.255,2.8a2.682,2.682,0,0,1-1.479,2.029,4.83,4.83,0,0,1-.777.327,16.573,16.573,0,0,1,5,3.482c2.989,3.092,4.674,7.544,5.294,11.754.4,2.755.284,5.981-1.391,8.065a55.366,55.366,0,0,0,7.866,6.6l3.28-2.982s-5.092-15.658-5.956-28.486C-117.557,175.018-135.169,170.931-140.954,174.025Z" opacity="0.49" fill="url(#linear-gradient-26)" style="mix-blend-mode: multiply;isolation: isolate"/>
      <path id="패스_462" data-name="패스 462" d="M-119.478,199.335a.952.952,0,0,0,.213-.456c.606-3.469-2.212-7.632-4.187-10.193a50.23,50.23,0,0,0-8.6-8.7c1.028-.133,2.376-.661,2.2-1.685a1.852,1.852,0,0,0-.987-1.117,14.7,14.7,0,0,0-7.17-2.275c-3.333-.035-2.13,2.167-.87,4.062a81.275,81.275,0,0,0,11.6,13.819c2.2,2.094,4.253,4.393,6.562,6.4a1.171,1.171,0,0,0,.781.385A.66.66,0,0,0-119.478,199.335Z" opacity="0.49" fill="url(#linear-gradient-27)" style="mix-blend-mode: screen;isolation: isolate"/>
      <path id="패스_463" data-name="패스 463" d="M-138.9,154.708a.945.945,0,0,1,.31-.791.741.741,0,0,1,.526-.053,3.468,3.468,0,0,1,1.842,1.424c2.367,2.931,4.711,6.233,4.821,10a3.829,3.829,0,0,1-.766,2.7,4.119,4.119,0,0,1-1.255.873c-.99.5-3.392,1.787-4.529,1.4-1.259-.424-.9-3.432-.963-4.59A106.793,106.793,0,0,1-138.9,154.708Z" opacity="0.46" fill="url(#linear-gradient-28)" style="mix-blend-mode: screen;isolation: isolate"/>
    </g>
    <path id="패스_464" data-name="패스 464" d="M-175.853,89.352c-4.826-19.468-2.19-33.435-.607-39.117a4.876,4.876,0,0,1,3.806-3.484c5.808-1.077,19.977-2.473,38.942,4.081,23.447,8.1,55.263,38.638,55.263,38.638s-6.892,7.53-7.268,15.893,12.29,25.366,12.29,25.366l-3.137,2.868c1.7.506,3.482,3.809,3.81,5.967a9.233,9.233,0,0,0,3.408,5.752,3.9,3.9,0,0,0,2.279.635A1.6,1.6,0,0,1-65.4,147.7c-.626,5.129-7.138,11.263-7.661,11.747h0l-.019.017-.018.016h0c-.53.479-7.222,6.415-12.385,6.577a1.6,1.6,0,0,1-1.6-1.809,3.89,3.89,0,0,0-.426-2.328,9.231,9.231,0,0,0-5.424-3.91c-2.12-.519-5.25-2.594-5.6-4.328l-3.138,2.867s-15.8-14.137-24.163-14.513-16.479,5.814-16.479,5.814S-169.882,113.43-175.853,89.352Z" fill="url(#linear-gradient-29)"/>
    <path id="패스_465" data-name="패스 465" d="M-175.853,89.352c-.782-3.16-1.367-6.173-1.795-9.033a95.772,95.772,0,0,0,20.806,22.615,26.2,26.2,0,0,0,5.8,10.2c8.75,9.458,23.386,12.448,35.837,9.495q1.676.33,3.367.588a47.3,47.3,0,0,0,10.345.735,12.475,12.475,0,0,0,6-1.794c3.5-2.285,4.881-6.269,5.091-10.293.262-4.94-.874-9.954-2.288-14.656a117.9,117.9,0,0,0-6.282-16.083,149.072,149.072,0,0,0-7.493-14.036c-.31-.507-.618-1.017-.933-1.528A293.611,293.611,0,0,1-78.449,89.47s-6.892,7.53-7.268,15.893,12.29,25.366,12.29,25.366l-3.137,2.868c1.7.506,3.482,3.809,3.81,5.967a9.233,9.233,0,0,0,3.408,5.752,3.9,3.9,0,0,0,2.279.635A1.6,1.6,0,0,1-65.4,147.7c-.626,5.129-7.138,11.263-7.661,11.747h0l-.019.017-.018.016h0c-.53.479-7.222,6.415-12.385,6.577a1.6,1.6,0,0,1-1.6-1.809,3.89,3.89,0,0,0-.426-2.328,9.231,9.231,0,0,0-5.424-3.91c-2.12-.519-5.25-2.594-5.6-4.328l-3.138,2.867s-15.8-14.137-24.163-14.513-16.479,5.814-16.479,5.814S-169.882,113.43-175.853,89.352Z" opacity="0.4" fill="url(#linear-gradient-30)" style="mix-blend-mode: multiply;isolation: isolate"/>
    <path id="패스_466" data-name="패스 466" d="M-145.439,113.81c9.531,10.426,24.8,11.98,34.11,3.471s9.13-23.859-.4-34.285-24.8-11.977-34.108-3.468S-154.969,103.385-145.439,113.81Z" opacity="0.39" fill="url(#linear-gradient-31)" style="mix-blend-mode: multiply;isolation: isolate"/>
    <path id="패스_467" data-name="패스 467" d="M-158.891,124.479q1.859,1.2,3.8,2.257a76.441,76.441,0,0,0,21.654,7.726,92.621,92.621,0,0,0,22.589,1.353c12.909-.635,26.535-8.23,26.715-23.41,3.323,8.41,10.706,18.324,10.706,18.324l-3.137,2.868c1.7.506,3.482,3.809,3.81,5.967a9.233,9.233,0,0,0,3.408,5.752,3.9,3.9,0,0,0,2.279.635A1.6,1.6,0,0,1-65.4,147.7c-.626,5.129-7.138,11.263-7.661,11.747h0l-.019.017-.018.016h0c-.53.479-7.222,6.415-12.385,6.577a1.6,1.6,0,0,1-1.6-1.809,3.89,3.89,0,0,0-.426-2.328,9.231,9.231,0,0,0-5.424-3.91c-2.12-.519-5.25-2.594-5.6-4.328l-3.138,2.867s-15.8-14.137-24.163-14.513-16.479,5.814-16.479,5.814S-150.487,137.656-158.891,124.479Z" opacity="0.4" fill="url(#linear-gradient-32)" style="mix-blend-mode: multiply;isolation: isolate"/>
    <path id="패스_468" data-name="패스 468" d="M-116.833,61.1c3.021,2.428,4.674,4.99,2.893,7.232a6.7,6.7,0,0,1-3.823,1.913,139.3,139.3,0,0,1-33.525,4.439,44.352,44.352,0,0,1-14.528-1.98c-3.761-1.308-10.153-4.6-11.256-8.9-.865-3.367,1-9.115,1.932-12.448a4.626,4.626,0,0,1,3.614-3.308c5.508-1.022,18.952-2.346,36.947,3.873C-132.713,52.572-122.426,56.6-116.833,61.1Z" opacity="0.49" fill="url(#linear-gradient-33)" style="mix-blend-mode: screen;isolation: isolate"/>
    <path id="패스_469" data-name="패스 469" d="M-147.945,111.068a22.833,22.833,0,0,0,32.26,1.447,22.834,22.834,0,0,0,1.448-32.261A22.835,22.835,0,0,0-146.5,78.805,22.835,22.835,0,0,0-147.945,111.068Z" opacity="0.72" fill="url(#linear-gradient-34)" style="mix-blend-mode: multiply;isolation: isolate"/>
    <path id="패스_470" data-name="패스 470" d="M-124.377,54.941s-12.266,23.8-48.221,44.077l2.484,5.573s17.256-7.772,29.517-18.98S-119,57.943-119,57.943Z" fill="url(#linear-gradient-35)"/>
    <path id="패스_471" data-name="패스 471" d="M-149.372,109.507a22.835,22.835,0,0,0,32.262,1.448,22.837,22.837,0,0,0,1.448-32.262,22.838,22.838,0,0,0-32.264-1.449A22.837,22.837,0,0,0-149.372,109.507Z" fill="url(#linear-gradient-36)"/>
    <path id="패스_472" data-name="패스 472" d="M-146.352,106.745a18.741,18.741,0,0,0,26.478,1.187,18.739,18.739,0,0,0,1.19-26.477,18.741,18.741,0,0,0-26.478-1.189A18.741,18.741,0,0,0-146.352,106.745Z" opacity="0.96" fill="url(#linear-gradient-37)" style="mix-blend-mode: multiply;isolation: isolate"/>
    <path id="패스_473" data-name="패스 473" d="M-145.481,105.949a17.564,17.564,0,0,0,24.814,1.115,17.565,17.565,0,0,0,1.113-24.814,17.563,17.563,0,0,0-24.814-1.115A17.561,17.561,0,0,0-145.481,105.949Z" fill="url(#linear-gradient-38)"/>
    <path id="패스_474" data-name="패스 474" d="M-115.412,81.389A21.887,21.887,0,0,0-146.333,80a21.893,21.893,0,0,0-5.322,24.841A21.892,21.892,0,0,1-147.493,77.7a21.888,21.888,0,0,1,30.923,1.39,21.834,21.834,0,0,1,3.934,6.079A21.89,21.89,0,0,0-115.412,81.389Z" opacity="0.46" fill="url(#linear-gradient-39)" style="mix-blend-mode: screen;isolation: isolate"/>
    <path id="패스_475" data-name="패스 475" d="M-84.211,89.993a37.624,37.624,0,0,0-1.427-7.061c4.454,3.914,7.189,6.538,7.189,6.538A33.871,33.871,0,0,0-84.5,99.577,32.9,32.9,0,0,0-84.211,89.993Z" opacity="0.4" fill="url(#linear-gradient-40)" style="mix-blend-mode: multiply;isolation: isolate"/>
    <path id="패스_476" data-name="패스 476" d="M-128.084,79.151a22.48,22.48,0,0,0-8.137,5.992,38.939,38.939,0,0,0-3.431,4.309,23.235,23.235,0,0,1-3.771,4.9,5.383,5.383,0,0,1-6.636.26,17.5,17.5,0,0,1,5.691-13.478A17.563,17.563,0,0,1-124.849,78.3,14.475,14.475,0,0,0-128.084,79.151Z" opacity="0.38" fill="url(#linear-gradient-41)" style="mix-blend-mode: screen;isolation: isolate"/>
    <path id="패스_477" data-name="패스 477" d="M-145.034,102.236c4.9-1.6,8.768-4.728,12.461-8.13q.735-.636,1.444-1.264c2.043-1.809,4-3.7,5.984-5.579a35.455,35.455,0,0,1,6.2-4.3,17.475,17.475,0,0,1,3.753,8.263c-.2-.114-.407-.222-.625-.32-3.895-1.721-8.446.08-11.744,2.277-4.193,2.791-7.631,6.668-12.426,8.484a14.222,14.222,0,0,1-6.324.926C-145.884,102.494-145.457,102.375-145.034,102.236Z" opacity="0.38" fill="url(#linear-gradient-42)" style="mix-blend-mode: screen;isolation: isolate"/>
    <path id="패스_478" data-name="패스 478" d="M-140.238,105.458a22.268,22.268,0,0,0,5.774-2.638c2.194-1.426,4.165-3.142,6.207-4.768,2.8-2.228,6.963-5.217,10.659-4.051a3.555,3.555,0,0,1,2.38,2.228c.037.091.065.187.1.283a17.493,17.493,0,0,1-5.545,10.552,17.562,17.562,0,0,1-24.576-.866A17.38,17.38,0,0,0-140.238,105.458Z" opacity="0.48" fill="url(#linear-gradient-43)" style="mix-blend-mode: multiply;isolation: isolate"/>
    <path id="패스_479" data-name="패스 479" d="M-126.343,78.333a13.686,13.686,0,0,1,7.023,5.792,3.008,3.008,0,0,1,.526,2.2,2.276,2.276,0,0,1-1.286,1.4c-1.823.859-3.737.688-5.689.647a42.966,42.966,0,0,0-8.577.689c-.364.067-.727.149-1.089.229-2.637.593-7.431,2.329-9.8.265-1.431-1.248-.9-3.527-.226-5.023a11.612,11.612,0,0,1,5.851-5.362,17.766,17.766,0,0,1,11.174-1.455A14.414,14.414,0,0,1-126.343,78.333Z" opacity="0.6" fill="url(#linear-gradient-44)" style="mix-blend-mode: screen;isolation: isolate"/>
    <path id="패스_480" data-name="패스 480" d="M-143.823,92.113c1.3,1.519.662,3.89-.607,5.228-1.2,1.271-2.835,1.363-3.626-.285a5.4,5.4,0,0,1-.454-2.61c.053-1.01.485-2.61,1.465-3.075A2.849,2.849,0,0,1-143.823,92.113Z" opacity="0.6" fill="url(#linear-gradient-45)" style="mix-blend-mode: screen;isolation: isolate"/>
    <path id="패스_481" data-name="패스 481" d="M-135.582,80.213a1.98,1.98,0,0,1,1.2-2.069,7.089,7.089,0,0,1,4.849-.5,7.415,7.415,0,0,1,2.17.871c.525.316,1.283.8,1.423,1.447a1.386,1.386,0,0,1,.072.176c.291,1.066-1.021,1.159-1.737,1.263a27.44,27.44,0,0,1-5.713.263A2.235,2.235,0,0,1-135.582,80.213Z" fill="#fff"/>
    <path id="패스_482" data-name="패스 482" d="M-123.647,82.077c-.239-.875.8-.926,1.492-.645a2.045,2.045,0,0,1,1.021,1.041.571.571,0,0,1-.109.663.706.706,0,0,1-.327.121,2.207,2.207,0,0,1-2.029-1.038C-123.618,82.169-123.634,82.122-123.647,82.077Z" fill="#fff"/>
    <path id="패스_483" data-name="패스 483" d="M-148.53,98.2c-.123-.793-.223-2.41,1.011-2.3,1.143.1,1.962,2.012,2.194,2.941a.481.481,0,0,1,.023.08,5.9,5.9,0,0,1,.2,1.8.818.818,0,0,1-.641.774,1.221,1.221,0,0,1-.863-.221A4.55,4.55,0,0,1-148.53,98.2Z" fill="#fff"/>
    <path id="패스_484" data-name="패스 484" d="M-144.838,104.046a1.345,1.345,0,0,1-.12-.373,1.513,1.513,0,0,1-.024-.259,1.848,1.848,0,0,1,.03-.259.527.527,0,0,1,.135-.229.383.383,0,0,1,.174-.11c1.476-.448,1.4,3.168.027,1.563A1.4,1.4,0,0,1-144.838,104.046Z" fill="#fff"/>
    <path id="패스_485" data-name="패스 485" d="M-142.429,110.007a18.75,18.75,0,0,0,22.555-2.075,18.7,18.7,0,0,0,6.074-14.78,13.629,13.629,0,0,0,3.192-4.957c.032-.092.043-.182.072-.273a22.831,22.831,0,0,1-6.574,23.033,22.835,22.835,0,0,1-32.262-1.448c-.163-.179-.317-.363-.473-.544A11.135,11.135,0,0,0-142.429,110.007Z" opacity="0.38" fill="url(#linear-gradient-46)" style="mix-blend-mode: multiply;isolation: isolate"/>
    <path id="패스_486" data-name="패스 486" d="M-163.323,100.324c.21.17.425.334.637.5-4.4,2.4-7.428,3.765-7.428,3.765l-2.484-5.573c1.574-.887,3.084-1.785,4.567-2.685C-166.476,97.677-164.925,99.03-163.323,100.324Z" opacity="0.4" fill="url(#linear-gradient-47)" style="mix-blend-mode: multiply;isolation: isolate"/>
    <path id="패스_487" data-name="패스 487" d="M-136.061,70.541c8.327-9.1,11.684-15.6,11.684-15.6l5.38,3s-2.326,4.1-6.18,9.6A40.238,40.238,0,0,1-136.061,70.541Z" opacity="0.52" fill="url(#linear-gradient-48)" style="mix-blend-mode: screen;isolation: isolate"/>
    <path id="패스_488" data-name="패스 488" d="M-176.46,50.235a4.876,4.876,0,0,1,3.806-3.484,62.929,62.929,0,0,1,14.13-.839,33.3,33.3,0,0,1-20,17.929A62.52,62.52,0,0,1-176.46,50.235Z" fill="url(#linear-gradient-49)"/>
    <path id="패스_489" data-name="패스 489" d="M-163.155,46.944a.9.9,0,0,1-.135.791c-.57,1.006-2.051,1.661-3.042,2.167a25.344,25.344,0,0,1-3.789,1.546,6.093,6.093,0,0,1-2.853.363c-.914-.159-2.611-1.315-2.421-2.408.22-1.26,2.115-2.041,3.2-2.243,1.462-.272,2.937-.465,4.417-.607C-167.186,46.5-163.6,45.9-163.155,46.944Z" opacity="0.52" fill="url(#linear-gradient-50)" style="mix-blend-mode: screen;isolation: isolate"/>
    <path id="패스_490" data-name="패스 490" d="M-177.666,55.744a7.185,7.185,0,0,0,1.9,1.11c4.383,1.735,8.548-.205,12.027-2.819a34.377,34.377,0,0,1-14.79,9.806A69.526,69.526,0,0,1-177.666,55.744Z" opacity="0.4" fill="url(#linear-gradient-51)" style="mix-blend-mode: multiply;isolation: isolate"/>
    <path id="패스_491" data-name="패스 491" d="M-87.064,163.737a20.341,20.341,0,0,0,5.912-2.184,37.147,37.147,0,0,0,9.871-8.433c1.351-1.575,4.223-4.714,3.895-7.183.107.005.219.015.319.014A1.6,1.6,0,0,1-65.4,147.7c-.626,5.129-7.138,11.263-7.661,11.747h0l-.019.017-.018.016h0c-.53.479-7.222,6.415-12.385,6.577a1.6,1.6,0,0,1-1.6-1.809A3.94,3.94,0,0,0-87.064,163.737Z" fill="url(#linear-gradient-52)"/>
    <path id="패스_492" data-name="패스 492" d="M-76.564,133.6c1.559.66,3.336,3.6,3.753,5.665a17.06,17.06,0,0,0-3.3,1.069,21.85,21.85,0,0,0-7.084,4.991,25.448,25.448,0,0,0-6.561,14.231,9.422,9.422,0,0,0-3.187-1.539c-2.037-.5-5.059-2.638-5.6-4.328Z" opacity="0.4" fill="url(#linear-gradient-53)" style="mix-blend-mode: multiply;isolation: isolate"/>
    <path id="패스_493" data-name="패스 493" d="M-109.55,120.041l0,0c.011-.01.027-.019.038-.03s.021-.024.034-.037l0,0C-100.892,112.377-74.8,132-74.8,132L-87.7,143.8l-.072.066-12.9,11.792S-117.888,127.912-109.55,120.041Z" opacity="0.4" fill="url(#linear-gradient-54)" style="mix-blend-mode: multiply;isolation: isolate"/>
    <path id="패스_494" data-name="패스 494" d="M-111.854,127.67c-.169-2.9.337-5.4,1.846-7.135l0,0c.045-.054.1-.1.147-.156.087-.093.166-.195.258-.283l0,0c.012-.012.027-.02.039-.032l.017-.018h0l.01-.007.008-.009v0l.019-.016c.012-.012.021-.024.034-.037l0,0c.1-.084.2-.153.306-.232.057-.043.11-.091.169-.132l0,0c1.862-1.348,4.4-1.625,7.27-1.2.026.013,10.609,5.752,12.44,7.931,1.56,1.855-4.714,7.076-6.623,8.6-1.686,1.767-7.446,7.547-9.155,5.828C-107.073,138.75-111.842,127.695-111.854,127.67Z" fill="url(#linear-gradient-55)"/>
    <path id="패스_495" data-name="패스 495" d="M-103.306,119.471a11.371,11.371,0,0,0-4.756,2.476,12.254,12.254,0,0,0-3.36,6.707c-.269-.609-.428-.981-.432-.984-.169-2.9.337-5.4,1.846-7.135l0,0c.045-.054.1-.1.147-.156.087-.093.166-.195.258-.283l0,0c.012-.012.027-.02.039-.032l.017-.018h0l.01-.007.008-.009v0l.019-.016c.012-.012.021-.024.034-.037l0,0c.1-.084.2-.153.306-.232.057-.043.11-.091.169-.132l0,0c1.862-1.348,4.4-1.625,7.27-1.2,0,0,.393.212,1.019.559A13.216,13.216,0,0,0-103.306,119.471Z" opacity="0.68" fill="url(#linear-gradient-56)" style="mix-blend-mode: multiply;isolation: isolate"/>
    <path id="패스_496" data-name="패스 496" d="M-104.835,140.939c-.642-.354-.064-4.308-.017-4.937a27.8,27.8,0,0,1,.982-5.879c.747-2.533,1.952-3.482,4.489-3.813q2.532-.332,5.084-.472c.881-.05,1.765-.1,2.648-.1a7.191,7.191,0,0,1,1.785.047,5.542,5.542,0,0,1,.574.559c1.56,1.855-4.714,7.076-6.623,8.6C-97.528,136.635-102.89,142.014-104.835,140.939Z" opacity="0.68" fill="url(#linear-gradient-57)" style="mix-blend-mode: multiply;isolation: isolate"/>
    <path id="패스_497" data-name="패스 497" d="M-104.524,142.743c-.449-4.547,1.257-12.692,2.854-14.153s10.325-2.851,14.814-2c4.8.909,25.612,40.137,25.612,40.137L-64,169.251l-.084.076-2.757,2.521S-104.049,147.606-104.524,142.743Z" fill="url(#linear-gradient-58)"/>
    <path id="패스_498" data-name="패스 498" d="M-103.441,144.634c2.031,1.086,4.753,2.041,6.493.965a4.5,4.5,0,0,0,1.6-2.947q.39-1.606.784-3.216a3.065,3.065,0,0,1,1.04-1.953,3.056,3.056,0,0,1,1.442-.365c2.1-.167,5.127.106,6.843-1.333,1.5-1.256,1.708-3.549,1.1-5.406a13.111,13.111,0,0,0-1.7-3.23c2.7,2.127,7.72,9.927,12.529,18.053a10.549,10.549,0,0,1-3.589,6.453,14.948,14.948,0,0,1-3.906,2.122,22.736,22.736,0,0,1-9.534,1.845C-96.117,151.357-101.274,147.23-103.441,144.634Z" opacity="0.57" fill="url(#linear-gradient-59)" style="mix-blend-mode: multiply;isolation: isolate"/>
    <path id="패스_499" data-name="패스 499" d="M-95.778,152.312c.235-3.8-.308-14.348,1.291-15.81s12.573-.446,16.379-.341c4.072.114,16.864,30.568,16.864,30.568L-64,169.251l-.084.076-2.757,2.521S-96.028,156.379-95.778,152.312Z" fill="url(#linear-gradient-60)"/>
    <path id="패스_500" data-name="패스 500" d="M-95.778,152.312a16.039,16.039,0,0,1,.292-2.081,96.7,96.7,0,0,0,10.636,7.812c3.116,2.071,6.424,3.851,10.2,4.345,1.168.152,3.022.22,3.961-.652.8-.738.925-2.285.9-3.294a18.231,18.231,0,0,0-1.894-6.482,97.668,97.668,0,0,0-8.973-15.608,15.137,15.137,0,0,1,2.553-.191c4.072.114,16.864,30.568,16.864,30.568l-5.6,5.119S-96.028,156.379-95.778,152.312Z" opacity="0.49" fill="url(#linear-gradient-61)" style="mix-blend-mode: multiply;isolation: isolate"/>
    <path id="패스_501" data-name="패스 501" d="M-82.663,155.2a50.714,50.714,0,0,1-9.313-5.253,4.587,4.587,0,0,1-2.377-3.331,23.328,23.328,0,0,1-.013-5.176c.129-1.17-.041-3.482,1.229-4.065a10.846,10.846,0,0,1,3.76-.541q1.3-.045,2.589-.1c1.588-.058,3.177-.1,4.255,1.17a22.534,22.534,0,0,1,2.937,4.8,69.048,69.048,0,0,1,2.968,7.085c.66,1.866,1.48,3.889,1.209,5.917-.234,1.77-3.02.969-4.143.62C-80.607,156-81.642,155.624-82.663,155.2Z" opacity="0.49" fill="url(#linear-gradient-62)" style="mix-blend-mode: screen;isolation: isolate"/>
    <path id="패스_502" data-name="패스 502" d="M-95.276,127.476c2.132-.289,4.278-.48,6.426-.572a1.263,1.263,0,0,1,.841.161,1.006,1.006,0,0,1,.327.6,3.8,3.8,0,0,1-1.767,3.818,11.157,11.157,0,0,1-4.2,1.457l-2.474.5a.849.849,0,0,0-.417.163.891.891,0,0,0-.213.45,17.981,17.981,0,0,1-2.308,5.854c-.628.937-2.808,3.427-4,1.954a1.824,1.824,0,0,1-.29-1.121,38.591,38.591,0,0,1,1.024-8.975,6.6,6.6,0,0,1,.72-2.134c.765-1.229,2.646-1.576,3.978-1.8Q-96.452,127.633-95.276,127.476Z" opacity="0.46" fill="url(#linear-gradient-63)" style="mix-blend-mode: screen;isolation: isolate"/>
    <path id="패스_503" data-name="패스 503" d="M-167.821,109.173s-3.47,16.255,4.619,25.105c2.167-1.981,4.615-4.219,9.568-1.859C-160.784,122.169-167.821,109.173-167.821,109.173Z" fill="url(#linear-gradient-64)"/>
    <path id="패스_504" data-name="패스 504" d="M-163.522,118.757c-1.075-2-2.617-5.079-4.71-6.958.2-1.629.411-2.626.411-2.626s7.037,13,14.187,23.246c-2.686-1.281-4.633-1.2-6.2-.551A31.424,31.424,0,0,0-163.522,118.757Z" opacity="0.4" fill="url(#linear-gradient-65)" style="mix-blend-mode: multiply;isolation: isolate"/>
    <path id="패스_505" data-name="패스 505" d="M-114.726,60.64s16.5-2,24.59,6.849c-2.167,1.981-4.615,4.218-2.709,9.363C-102.411,68.812-114.726,60.64-114.726,60.64Z" fill="url(#linear-gradient-66)"/>
    <path id="패스_506" data-name="패스 506" d="M-105.566,65.78c-1.895-1.251-4.823-3.062-6.506-5.314-1.642.051-2.654.174-2.654.174s12.315,8.172,21.881,16.212c-1.033-2.791-.781-4.723.008-6.224A31.409,31.409,0,0,1-105.566,65.78Z" opacity="0.4" fill="url(#linear-gradient-67)" style="mix-blend-mode: multiply;isolation: isolate"/>
  </g>
</svg>
