<svg xmlns="http://www.w3.org/2000/svg" width="81.686" height="118.674" viewBox="0 0 81.686 118.674">
  <g id="그룹_211" data-name="그룹 211" transform="translate(0 8.331)">
    <path id="패스_585" data-name="패스 585" d="M318.71,3243.873s5.813,19.347-4.763,32.682l.283-.212a30.664,30.664,0,0,0,9.522-12.054,42.241,42.241,0,0,0,3.9-20.023S324.489,3239.3,318.71,3243.873Z" transform="translate(-278.244 -3240.162)" fill="#3d0299" stroke="#3d0299" stroke-linecap="round" stroke-linejoin="round" stroke-width="20"/>
    <circle id="타원_21" data-name="타원 21" cx="40.843" cy="40.843" r="40.843" transform="translate(0 28.657)" fill="#3d0299"/>
    <path id="패스_586" data-name="패스 586" d="M319.607,3315.322c-3.568-3.569-5.064-7.861-3.341-9.583s6.014-.227,9.583,3.338,5.064,7.861,3.338,9.583-6.012.23-9.581-3.338Zm-9.143-15a26.265,26.265,0,1,0,26.264,26.264,26.266,26.266,0,0,0-26.264-26.264Z" transform="translate(-269.619 -3257.089)" fill="#7c00ff" stroke="#7c00ff" stroke-miterlimit="10" stroke-width="21.185" style="mix-blend-mode: color-dodge;isolation: isolate"/>
    <path id="패스_587" data-name="패스 587" d="M328.54,3307.129c-1.819,1.82-.24,6.353,3.528,10.122s8.3,5.349,10.119,3.526.244-6.353-3.526-10.122S330.362,3305.306,328.54,3307.129Z" transform="translate(-282.255 -3258.842)" fill="#3d0299" fill-rule="evenodd"/>
    <path id="패스_588" data-name="패스 588" d="M319.509,3241.244s5.422,18.046-4.443,30.483l.264-.2a28.607,28.607,0,0,0,8.881-11.244,39.4,39.4,0,0,0,3.636-18.676S324.9,3236.976,319.509,3241.244Z" transform="translate(-278.568 -3239.438)" fill="#7c9d46"/>
  </g>
</svg>
